<svg width="171" height="41" viewBox="0 0 171 41" fill="none" xmlns="http://www.w3.org/2000/svg">
<path d="M44.0653 14.0085V12.2001L48.8631 7.49687C49.3219 7.03351 49.7043 6.62189 50.0102 6.26201C50.3161 5.90212 50.5455 5.55348 50.6985 5.21609C50.8514 4.8787 50.9279 4.51881 50.9279 4.13643C50.9279 3.70007 50.8289 3.32669 50.631 3.01629C50.4331 2.70139 50.1609 2.45847 49.8145 2.28752C49.4681 2.11658 49.0745 2.0311 48.6336 2.0311C48.1793 2.0311 47.7812 2.12557 47.4393 2.31451C47.0974 2.49895 46.832 2.76212 46.643 3.10401C46.4586 3.4459 46.3664 3.85302 46.3664 4.32537H43.9844C43.9844 3.44815 44.1846 2.68565 44.5849 2.03785C44.9853 1.39006 45.5364 0.888467 46.2382 0.533081C46.9444 0.177694 47.7542 0 48.6674 0C49.5941 0 50.4083 0.173195 51.1101 0.519584C51.8119 0.865974 52.3562 1.34057 52.7431 1.94338C53.1345 2.54619 53.3302 3.23447 53.3302 4.00822C53.3302 4.52556 53.2312 5.0339 53.0332 5.53324C52.8353 6.03258 52.4867 6.58591 51.9873 7.19321C51.4925 7.80052 50.7975 8.53603 49.9022 9.39976L47.5203 11.8222V11.9167H53.5393V14.0085H44.0653Z" fill="#3D3D3D"/>
<path d="M39.3652 5.78174L28.1924 39.2749C28.0379 39.7374 27.6048 40.0491 27.1172 40.0493H20.3857C19.898 40.0493 19.464 39.7376 19.3096 39.2749L13.1885 20.9312L1.59375 25.1177C1.03419 25.3194 0.413857 25.0541 0.172852 24.5103L0.0976562 24.3403C-0.164161 23.7493 0.120349 23.0593 0.722656 22.8247L17.8428 16.1548C18.417 15.9313 19.053 16.2086 19.292 16.7573H19.293L19.2939 16.7632C19.3128 16.8071 19.3302 16.8526 19.3438 16.8999L19.8135 18.5405L19.8027 18.5435L23.584 31.7886H23.918L31.0859 6.55811C31.2253 6.06825 31.6743 5.73167 32.1836 5.73486L39.3652 5.78174Z" fill="#3D3D3D"/>
<path fill-rule="evenodd" clip-rule="evenodd" d="M64.8716 9.10901C64.8716 8.48288 64.3641 7.9753 63.7379 7.9753H54.8978C54.2961 7.9753 53.8083 7.48754 53.8083 6.88584V6.88584C53.8083 6.28415 54.2961 5.79639 54.8978 5.79639H65.9168C66.543 5.79639 67.0505 6.30396 67.0505 6.93009V38.2238C67.0505 38.8499 66.543 39.3575 65.9168 39.3575H36.0191C35.4175 39.3575 34.9297 38.8697 34.9297 38.268V38.268C34.9297 37.6663 35.4175 37.1786 36.0191 37.1786H63.7379C64.3641 37.1786 64.8716 36.671 64.8716 36.0449V9.10901Z" fill="#3D3D3D"/>
<path d="M33.6889 5.78174L45.2573 5.78182C45.5704 5.78182 45.8242 6.03561 45.8242 6.34867V7.42139C45.8242 7.73445 45.5704 7.98824 45.2573 7.98824H32.918L33.6889 5.78174Z" fill="#3D3D3D"/>
<path fill-rule="evenodd" clip-rule="evenodd" d="M54.3138 22.2512C54.3138 21.6251 53.8062 21.1175 53.1801 21.1175H44.8254C44.1993 21.1175 43.6917 21.6251 43.6917 22.2512V30.6058C43.6917 31.232 44.1993 31.7396 44.8254 31.7396H53.1801C53.8062 31.7396 54.3138 31.232 54.3138 30.6058V22.2512ZM43.1493 19.4414C42.5232 19.4414 42.0156 19.949 42.0156 20.5751V32.2819C42.0156 32.9081 42.5232 33.4156 43.1493 33.4156H54.8562C55.4823 33.4156 55.9899 32.9081 55.9899 32.2819V20.5751C55.9899 19.949 55.4823 19.4414 54.8562 19.4414H43.1493Z" fill="#EE8C1D"/>
<path fill-rule="evenodd" clip-rule="evenodd" d="M58.8255 19.4245C58.8255 18.7984 58.3179 18.2908 57.6918 18.2908H49.3371C48.711 18.2908 48.2034 18.7984 48.2034 19.4245V27.7792C48.2034 28.4053 48.711 28.9129 49.3371 28.9129H57.6918C58.3179 28.9129 58.8255 28.4053 58.8255 27.7792V19.4245ZM47.6611 16.6147C47.0349 16.6147 46.5273 17.1223 46.5273 17.7485V29.4553C46.5273 30.0814 47.0349 30.589 47.6611 30.589H59.3679C59.994 30.589 60.5016 30.0814 60.5016 29.4553V17.7485C60.5016 17.1223 59.994 16.6147 59.3679 16.6147H47.6611Z" fill="#EE8C1D"/>
<path d="M82.5053 12.9199L85.5477 22.8842H85.6606L88.703 12.9199H92.3831L87.7929 26.5244H83.4153L78.8251 12.9199H82.5053ZM93.8213 26.5244V24.1596L98.7835 19.8152C99.1555 19.4786 99.4721 19.1708 99.7334 18.8918C99.9947 18.6084 100.194 18.325 100.331 18.0415C100.469 17.7537 100.537 17.4415 100.537 17.1049C100.537 16.7285 100.455 16.4074 100.291 16.1417C100.128 15.8716 99.9017 15.6634 99.6138 15.5173C99.326 15.3711 98.9961 15.2981 98.6241 15.2981C98.2476 15.2981 97.9177 15.3756 97.6343 15.5306C97.3508 15.6811 97.1294 15.9003 96.97 16.1882C96.815 16.4761 96.7375 16.8259 96.7375 17.2378H93.622C93.622 16.3122 93.8302 15.5128 94.2464 14.8397C94.6627 14.1666 95.2473 13.6484 96.0001 13.2853C96.7574 12.9177 97.6365 12.7339 98.6373 12.7339C99.6692 12.7339 100.566 12.9066 101.328 13.2521C102.089 13.5975 102.678 14.0802 103.095 14.7002C103.515 15.3158 103.726 16.031 103.726 16.8458C103.726 17.364 103.622 17.8777 103.414 18.387C103.205 18.8962 102.831 19.4587 102.291 20.0742C101.755 20.6898 100.993 21.4272 100.006 22.2863L98.3783 23.7876V23.8739H103.892V26.5244H93.8213Z" fill="#EE8C1D"/>
<path d="M113.13 16.9986C113.086 16.5115 112.889 16.1328 112.539 15.8627C112.194 15.5881 111.7 15.4508 111.058 15.4508C110.633 15.4508 110.278 15.5062 109.995 15.6169C109.711 15.7276 109.499 15.8804 109.357 16.0753C109.215 16.2657 109.142 16.4849 109.138 16.7329C109.129 16.9366 109.169 17.116 109.258 17.271C109.351 17.426 109.483 17.5633 109.656 17.6828C109.833 17.798 110.046 17.8998 110.294 17.9884C110.542 18.077 110.821 18.1545 111.131 18.2209L112.3 18.4866C112.973 18.6328 113.567 18.8276 114.08 19.0712C114.598 19.3147 115.032 19.6048 115.382 19.9414C115.736 20.278 116.004 20.6655 116.186 21.1039C116.368 21.5423 116.461 22.0339 116.465 22.5786C116.461 23.4377 116.244 24.1751 115.814 24.7906C115.384 25.4062 114.767 25.8778 113.961 26.2056C113.159 26.5333 112.191 26.6971 111.058 26.6971C109.92 26.6971 108.928 26.5266 108.082 26.1856C107.236 25.8446 106.578 25.3265 106.109 24.6312C105.639 23.9359 105.398 23.0569 105.385 21.994H108.533C108.56 22.4324 108.677 22.7978 108.886 23.0901C109.094 23.3824 109.379 23.6038 109.742 23.7544C110.11 23.9049 110.535 23.9802 111.018 23.9802C111.461 23.9802 111.837 23.9204 112.147 23.8009C112.462 23.6813 112.703 23.5152 112.871 23.3026C113.04 23.0901 113.126 22.8465 113.13 22.5719C113.126 22.3151 113.046 22.0959 112.891 21.9143C112.736 21.7283 112.497 21.5689 112.174 21.436C111.855 21.2987 111.447 21.1725 110.951 21.0574L109.53 20.7252C108.352 20.4551 107.424 20.0189 106.747 19.4166C106.069 18.8099 105.732 17.9906 105.737 16.9588C105.732 16.1173 105.958 15.38 106.414 14.7467C106.871 14.1134 107.502 13.6196 108.308 13.2654C109.114 12.9111 110.033 12.7339 111.064 12.7339C112.118 12.7339 113.033 12.9133 113.808 13.272C114.587 13.6263 115.192 14.1245 115.621 14.7666C116.051 15.4088 116.27 16.1528 116.279 16.9986H113.13ZM124.788 30.3507V24.8704H124.722C124.585 25.1848 124.39 25.4793 124.137 25.7538C123.885 26.0284 123.568 26.2498 123.188 26.4181C122.811 26.5864 122.366 26.6706 121.852 26.6706C121.099 26.6706 120.415 26.4757 119.8 26.086C119.184 25.6963 118.693 25.1117 118.325 24.3323C117.957 23.5529 117.774 22.5852 117.774 21.4294C117.774 20.2292 117.964 19.2417 118.345 18.4667C118.726 17.6917 119.224 17.1182 119.84 16.7462C120.46 16.3742 121.126 16.1882 121.839 16.1882C122.375 16.1882 122.833 16.2812 123.214 16.4672C123.595 16.6488 123.909 16.8835 124.157 17.1713C124.405 17.4592 124.594 17.7581 124.722 18.0681H124.822V16.3211H128.037V30.3507H124.788ZM122.982 24.1396C123.376 24.1396 123.712 24.0289 123.991 23.8075C124.27 23.5816 124.485 23.265 124.636 22.8576C124.786 22.4502 124.862 21.9719 124.862 21.4227C124.862 20.8647 124.786 20.3842 124.636 19.9812C124.49 19.5782 124.275 19.2682 123.991 19.0512C123.712 18.8342 123.376 18.7257 122.982 18.7257C122.579 18.7257 122.238 18.8365 121.959 19.0579C121.68 19.2793 121.467 19.5915 121.321 19.9945C121.179 20.3975 121.108 20.8736 121.108 21.4227C121.108 21.9719 121.181 22.4502 121.328 22.8576C121.474 23.265 121.684 23.5816 121.959 23.8075C122.238 24.0289 122.579 24.1396 122.982 24.1396ZM136.674 22.1202V16.3211H139.916V26.5244H136.82V24.6246H136.714C136.488 25.249 136.103 25.745 135.558 26.1126C135.018 26.4757 134.365 26.6573 133.598 26.6573C132.903 26.6573 132.292 26.4978 131.765 26.179C131.238 25.8601 130.828 25.4151 130.536 24.8438C130.244 24.2681 130.095 23.5949 130.091 22.8244V16.3211H133.339V22.1867C133.344 22.7402 133.49 23.1764 133.778 23.4953C134.066 23.8141 134.458 23.9736 134.954 23.9736C135.277 23.9736 135.567 23.9027 135.824 23.761C136.085 23.6149 136.291 23.4045 136.442 23.1299C136.597 22.8509 136.674 22.5144 136.674 22.1202ZM144.86 26.6971C144.209 26.6971 143.631 26.5886 143.126 26.3716C142.626 26.1502 142.229 25.8181 141.937 25.3752C141.649 24.9279 141.505 24.3677 141.505 23.6946C141.505 23.1277 141.605 22.6494 141.804 22.2597C142.003 21.87 142.278 21.5534 142.628 21.3098C142.978 21.0662 143.381 20.8825 143.837 20.7585C144.293 20.63 144.78 20.5437 145.298 20.4994C145.878 20.4462 146.345 20.3909 146.7 20.3333C147.054 20.2713 147.311 20.185 147.47 20.0742C147.634 19.9591 147.716 19.7975 147.716 19.5893V19.5561C147.716 19.2151 147.599 18.9516 147.364 18.7656C147.129 18.5796 146.813 18.4866 146.414 18.4866C145.985 18.4866 145.639 18.5796 145.378 18.7656C145.117 18.9516 144.95 19.2085 144.88 19.5362L141.884 19.4299C141.972 18.8099 142.2 18.2563 142.568 17.7692C142.94 17.2776 143.449 16.8923 144.096 16.6133C144.747 16.3299 145.528 16.1882 146.441 16.1882C147.092 16.1882 147.692 16.2657 148.241 16.4207C148.79 16.5713 149.268 16.7927 149.676 17.085C150.083 17.3728 150.398 17.7271 150.619 18.1478C150.845 18.5685 150.958 19.049 150.958 19.5893V26.5244H147.902V25.1029H147.822C147.641 25.4483 147.408 25.7406 147.125 25.9797C146.846 26.2188 146.516 26.3982 146.135 26.5178C145.759 26.6373 145.334 26.6971 144.86 26.6971ZM145.863 24.5714C146.213 24.5714 146.527 24.5006 146.806 24.3589C147.089 24.2171 147.315 24.0223 147.484 23.7743C147.652 23.5219 147.736 23.2296 147.736 22.8974V21.9276C147.643 21.9763 147.53 22.0206 147.397 22.0604C147.269 22.1003 147.127 22.1379 146.972 22.1734C146.817 22.2088 146.658 22.2398 146.494 22.2664C146.33 22.2929 146.173 22.3173 146.022 22.3394C145.717 22.3882 145.455 22.4634 145.238 22.5653C145.026 22.6672 144.862 22.8 144.747 22.9639C144.636 23.1233 144.581 23.3137 144.581 23.5351C144.581 23.8717 144.7 24.1286 144.939 24.3057C145.183 24.4829 145.491 24.5714 145.863 24.5714ZM152.944 26.5244V16.3211H156.099V18.181H156.206C156.392 17.5079 156.695 17.0075 157.116 16.6798C157.536 16.3476 158.026 16.1816 158.584 16.1816C158.734 16.1816 158.889 16.1926 159.049 16.2148C159.208 16.2325 159.357 16.2613 159.494 16.3011V19.1243C159.339 19.0712 159.135 19.0291 158.883 18.9981C158.635 18.9671 158.413 18.9516 158.218 18.9516C157.833 18.9516 157.485 19.038 157.175 19.2107C156.87 19.379 156.629 19.6159 156.451 19.9215C156.279 20.2226 156.192 20.5769 156.192 20.9843V26.5244H152.944ZM165.057 26.7171C163.99 26.7171 163.069 26.5067 162.294 26.086C161.523 25.6608 160.93 25.0564 160.513 24.2725C160.102 23.4842 159.896 22.5476 159.896 21.4626C159.896 20.4086 160.104 19.4875 160.52 18.6992C160.936 17.9065 161.523 17.2909 162.28 16.8525C163.038 16.4096 163.93 16.1882 164.958 16.1882C165.684 16.1882 166.348 16.3011 166.95 16.527C167.553 16.7528 168.073 17.0872 168.511 17.53C168.95 17.9729 169.291 18.5198 169.534 19.1708C169.778 19.8174 169.9 20.5592 169.9 21.3962V22.2066H161.032V20.32H166.877C166.873 19.9746 166.791 19.6668 166.632 19.3967C166.472 19.1265 166.253 18.9162 165.974 18.7656C165.699 18.6106 165.383 18.5331 165.024 18.5331C164.661 18.5331 164.335 18.615 164.047 18.7789C163.76 18.9383 163.532 19.1575 163.363 19.4365C163.195 19.7111 163.106 20.0233 163.098 20.3732V22.2929C163.098 22.7092 163.179 23.0746 163.343 23.389C163.507 23.699 163.74 23.9404 164.041 24.1131C164.342 24.2858 164.701 24.3721 165.117 24.3721C165.405 24.3721 165.666 24.3323 165.901 24.2526C166.136 24.1729 166.337 24.0555 166.505 23.9005C166.674 23.7455 166.8 23.5551 166.884 23.3292L169.867 23.4156C169.743 24.0843 169.47 24.6666 169.05 25.1626C168.633 25.6542 168.086 26.0373 167.409 26.3118C166.731 26.582 165.947 26.7171 165.057 26.7171Z" fill="#3D3D3D"/>
</svg>
